HIERARCHY
ROOT Hips
{
	OFFSET 0.00000 0.00000 0.00000
	CHANNELS 6 Xposition Yposition Zposition Zrotation Yrotation Xrotation 
	JOINT LHipJoint
	{
		OFFSET 0 0 0
		CHANNELS 3 Zrotation Yrotation Xrotation
		JOINT LeftHip
		{
			OFFSET 1.53139 -1.83434 0.76626
			CHANNELS 3 Zrotation Yrotation Xrotation
			JOINT LeftKnee
			{
				OFFSET 2.56112 -7.03663 0.00000
				CHANNELS 3 Zrotation Yrotation Xrotation
				JOINT LeftAnkle
				{
					OFFSET 2.59983 -7.14299 0.00000
					CHANNELS 3 Zrotation Yrotation Xrotation
					JOINT LeftToe
					{
						OFFSET 0.13742 -0.37757 2.00054
						CHANNELS 3 Zrotation Yrotation Xrotation
						End Site
						{
							OFFSET 0.00000 -0.00000 1.02897
						}
					}
				}
			}
		}
	}
	JOINT RHipJoint
	{
		OFFSET 0 0 0
		CHANNELS 3 Zrotation Yrotation Xrotation
		JOINT RightHip
		{
			OFFSET -1.40122 -1.83435 0.76627
			CHANNELS 3 Zrotation Yrotation Xrotation
			JOINT RightKnee
			{
				OFFSET -2.54052 -6.98003 0.00000
				CHANNELS 3 Zrotation Yrotation Xrotation
				JOINT RightAnkle
				{
					OFFSET -2.63179 -7.23079 0.00000
					CHANNELS 3 Zrotation Yrotation Xrotation
					JOINT RightToe
					{
						OFFSET -0.24131 -0.66299 2.03908
						CHANNELS 3 Zrotation Yrotation Xrotation
						End Site
						{
							OFFSET -0.00000 -0.00000 1.07391
						}
					}
				}
			}
		}
	}
	JOINT lowerback
	{
		OFFSET 0 0 0
		CHANNELS 3 Zrotation Yrotation Xrotation
		JOINT Chest
		{
			OFFSET 0.01174 2.10302 -0.29778
			CHANNELS 3 Zrotation Yrotation Xrotation
			JOINT Chest2
			{
				OFFSET 0.00772 2.13227 -0.01247
				CHANNELS 3 Zrotation Yrotation Xrotation
				JOINT lowerneck
				{
					OFFSET 0 0 0
					CHANNELS 3 Zrotation Yrotation Xrotation
					JOINT Neck
					{
						OFFSET -0.09219 1.60848 0.31481
						CHANNELS 3 Zrotation Yrotation Xrotation
						JOINT Head
						{
							OFFSET 0.13974 1.65456 -0.31134
							CHANNELS 3 Zrotation Yrotation Xrotation
							End Site
							{
								OFFSET 0.04742 1.69515 -0.14578
							}
						}
					}
				}
				JOINT LeftCollar
				{
					OFFSET 0 0 0
					CHANNELS 3 Zrotation Yrotation Xrotation
					JOINT LeftShoulder
					{
						OFFSET 3.24909 1.02882 -0.23993
CHANNELS 3 Zrotation Xrotation Yrotation
						JOINT LeftElbow
						{
OFFSET 0 -5.329550 -0.000000
CHANNELS 3 Zrotation Xrotation Yrotation
							JOINT LeftWrist
							{
OFFSET 0 -3.692320 -0.000000
CHANNELS 3 Zrotation Xrotation Yrotation
								JOINT lhand
								{
									OFFSET 0 0 0
CHANNELS 3 Zrotation Xrotation Yrotation
									JOINT LFingers
									{
OFFSET 0 -0.536600 -0.000000
CHANNELS 3 Zrotation Xrotation Yrotation
										End Site
										{
OFFSET 0 -0.432620 -0.000000
										}
									}
								}
								JOINT LThumb
								{
OFFSET 0 0.000000 0.000000
CHANNELS 3 Zrotation Xrotation Yrotation
									End Site
									{
OFFSET 0 -0.439220 0.439220
									}
								}
							}
						}
					}
				}
				JOINT RightCollar
				{
					OFFSET 0 0 0
					CHANNELS 3 Zrotation Yrotation Xrotation
					JOINT RightShoulder
					{
						OFFSET -3.21387 0.93002 -0.34594
CHANNELS 3 Zrotation Xrotation Yrotation
						JOINT RightElbow
						{
OFFSET 0 -5.234310 0.000000
CHANNELS 3 Zrotation Xrotation Yrotation
							JOINT RightWrist
							{
OFFSET 0 -3.553010 -0.000000
CHANNELS 3 Zrotation Xrotation Yrotation
								JOINT rhand
								{
									OFFSET 0 0 0
CHANNELS 3 Zrotation Xrotation Yrotation
									JOINT RFingers
									{
OFFSET 0 -0.772520 -0.000000
CHANNELS 3 Zrotation Xrotation Yrotation
										End Site
										{
OFFSET 0 -0.622830 -0.000000
										}
									}
								}
								JOINT RThumb
								{
OFFSET 0 0.000000 0.000000
CHANNELS 3 Zrotation Xrotation Yrotation
									End Site
									{
OFFSET 0 -0.632340 0.632340
									}
								}
							}
						}
					}
				}
			}
		}
	}
}
MOTION
Frames: 5
Frame Time: 0.008333333333333333
-8.812591 17.741824 8.681685 -182.426554 33.906868 902.016509 0.000000 0.000000 0.000000 -19.065697 -12.220755 0.871532 0.890834 6.015675 16.830202 0.170081 -13.931303 -11.697838 0.298990 -3.510572 -9.704201 0.000000 0.000000 0.000000 8.709634 5.334322 -27.717794 -2.578246 -9.978629 28.907715 -0.130330 -5.641044 -11.104931 -0.160352 2.578941 -7.108718 4.310537 5.189052 16.271735 -2.603086 7.627058 1.071778 -6.858883 3.615756 -6.994718 -7.748449 1.956901 -15.825399 -1.366394 14.142699 43.768088 4.161760 5.871377 19.301864 0.000000 0.000000 0.000000 1.361421 7.449506 -16.105717 18.855163 -29.238337 4.959933 20.344177 15.172205 -27.041960 0.000000 0.000000 0.000000 -7.125000 0.000000 0.000000 -11.079215 58.199891 3.606635 0.000000 0.000000 0.000000 -7.777325 5.006713 9.600449 -21.095116 -31.939146 -6.100244 -13.753154 2.057943 -7.848190 0.000000 0.000000 0.000000 7.125000 0.000000 0.000000 9.492340 21.941071 5.329675
-9.502827 17.765720 9.153043 -182.099304 34.169363 900.990376 0.000000 0.000000 0.000000 -19.309322 -12.537103 -2.524367 1.255527 7.103096 20.021432 0.087752 -14.810403 -11.359024 0.307485 -3.564991 -9.855874 0.000000 0.000000 0.000000 10.936982 4.078854 -29.320198 -4.605885 -12.922987 39.085432 -0.400063 -0.958042 -12.346371 -0.232213 3.100840 -8.559647 1.976866 4.124598 16.467855 -1.603169 5.887396 1.627409 -4.131942 2.862900 -7.083745 -11.796707 -3.677687 -12.644208 -0.272505 3.740151 42.005750 3.148198 1.133493 17.743279 0.000000 0.000000 0.000000 3.094812 5.437092 -16.408686 19.953292 -30.585733 5.507700 20.329998 14.574640 -26.984463 0.000000 0.000000 0.000000 -7.125000 0.000000 0.000000 -11.067512 58.138057 3.589784 0.000000 0.000000 0.000000 -7.307969 1.514378 12.650625 -21.497809 -32.404683 -6.314694 -14.323982 2.217286 -8.194837 0.000000 0.000000 0.000000 7.125000 0.000000 0.000000 9.065891 21.565814 5.162797
-10.008068 17.776234 9.575591 -181.888815 32.496298 899.943043 0.000000 0.000000 0.000000 -19.116113 -13.292750 -3.966836 1.365058 7.394684 20.890172 -0.092676 -18.081953 -11.847782 0.524766 -4.642561 -12.891812 0.000000 0.000000 0.000000 13.143848 4.977107 -26.731709 -7.288780 -15.569518 49.956790 -0.492167 7.540468 -12.791300 -0.576400 4.842617 -13.463785 -0.325988 2.961865 15.726706 -0.707773 3.996243 1.710306 -1.431789 2.020654 -6.949803 -15.215191 -9.097507 -5.488037 2.352755 -6.767051 39.968398 3.036932 -3.472569 16.022458 0.000000 0.000000 0.000000 5.448248 5.997458 -16.471431 22.885967 -33.963456 7.074656 20.358134 10.947612 -29.031478 0.000000 0.000000 0.000000 -7.125000 0.000000 0.000000 -12.219289 60.188895 4.574808 0.000000 0.000000 0.000000 -6.571254 2.090403 17.576265 -23.745764 -34.893421 -7.560983 -13.166500 2.955141 -9.946911 0.000000 0.000000 0.000000 7.125000 0.000000 0.000000 9.830709 19.843163 5.997567
-10.325125 17.750594 9.970523 -182.285596 29.195816 899.435466 0.000000 0.000000 0.000000 -18.618210 -12.728004 -6.211257 1.306979 7.241924 20.434200 -1.225700 -25.210009 -8.339108 0.341495 -3.744763 -10.360957 0.000000 0.000000 0.000000 15.875281 5.989821 -21.045279 -8.617411 -16.555107 54.757396 -0.009442 18.686746 -13.237018 -0.697537 5.335553 -14.868927 -2.909648 1.924914 14.324432 -0.220796 2.242334 1.618004 0.962586 1.236165 -6.415687 -15.772624 -13.742395 0.818434 5.085973 -15.871535 38.383737 2.983513 -7.297488 15.247341 0.000000 0.000000 0.000000 8.306941 6.002245 -15.655594 25.662861 -36.873628 8.684597 23.661264 9.208885 -24.989637 0.000000 0.000000 0.000000 -7.125000 0.000000 0.000000 -6.539679 56.829978 1.902841 0.000000 0.000000 0.000000 -5.199626 3.262188 20.406041 -25.247732 -36.456111 -8.436718 -13.199910 2.824737 -11.425323 0.000000 0.000000 0.000000 7.125000 0.000000 0.000000 9.762997 18.348744 6.285147
-10.569732 17.684191 10.343817 -182.704309 24.927230 899.743150 0.000000 0.000000 0.000000 -18.367614 -13.565951 -9.364793 1.346430 7.346194 20.745246 -2.831809 -30.656833 -1.248599 0.057990 -1.505887 -4.142818 0.000000 0.000000 0.000000 19.830834 7.577395 -13.547861 -7.731014 -15.917078 51.586703 1.144557 27.586084 -11.864932 -0.444415 4.277316 -11.858174 -4.089949 0.919211 12.652589 0.254231 0.786747 1.276610 2.435772 0.538907 -5.810498 -15.688243 -17.116179 3.918288 7.566101 -22.121398 37.619464 3.076596 -9.824741 15.525777 0.000000 0.000000 0.000000 10.231370 5.157298 -14.136716 26.925636 -38.108007 9.453244 23.020561 8.874119 -25.401194 0.000000 0.000000 0.000000 -7.125000 0.000000 0.000000 -7.402299 57.117923 2.205764 0.000000 0.000000 0.000000 -4.125797 4.061165 20.072787 -24.510342 -35.699265 -8.002459 -13.368780 3.038414 -11.697668 0.000000 0.000000 0.000000 7.125000 0.000000 0.000000 9.638908 18.063597 6.264575
